<svg width="51" height="45" viewBox="0 0 51 45" fill="none" xmlns="http://www.w3.org/2000/svg">
<path d="M3.47783 -1.72604L1.50179 -5.20386L-5.45386 -1.25179L-3.47783 2.22604L3.47783 -1.72604ZM21.5222 46.226C22.6135 48.1468 25.0553 48.8192 26.976 47.7278C28.8968 46.6365 29.5692 44.1947 28.4778 42.274L21.5222 46.226ZM-3.47783 2.22604L21.5222 46.226L28.4778 42.274L3.47783 -1.72604L-3.47783 2.22604Z" fill="#0E0E0E"/>
<path d="M54.1596 2.00896L56.1686 -1.44995L49.2507 -5.46787L47.2418 -2.00896L54.1596 2.00896ZM21.5411 42.241C20.4316 44.1513 21.0807 46.5994 22.991 47.7089C24.9013 48.8184 27.3494 48.1693 28.4589 46.259L21.5411 42.241ZM47.2418 -2.00896L21.5411 42.241L28.4589 46.259L54.1596 2.00896L47.2418 -2.00896Z" fill="#0E0E0E"/>
</svg>
