<svg width="70" height="70" viewBox="0 0 70 70" fill="none" xmlns="http://www.w3.org/2000/svg">
<path d="M8.75 17.5L17.5 5.83331H52.5L61.25 17.5M8.75 17.5V58.3333C8.75 59.8804 9.36458 61.3641 10.4585 62.4581C11.5525 63.5521 13.0362 64.1666 14.5833 64.1666H55.4167C56.9638 64.1666 58.4475 63.5521 59.5415 62.4581C60.6354 61.3641 61.25 59.8804 61.25 58.3333V17.5M8.75 17.5H61.25M46.6667 29.1666C46.6667 32.2608 45.4375 35.2283 43.2496 37.4162C41.0617 39.6041 38.0942 40.8333 35 40.8333C31.9058 40.8333 28.9383 39.6041 26.7504 37.4162C24.5625 35.2283 23.3333 32.2608 23.3333 29.1666" stroke="#41454A" stroke-width="4" stroke-linecap="round" stroke-linejoin="round"/>
</svg>
