<svg width="2286" height="528" viewBox="0 0 2286 528" fill="none" xmlns="http://www.w3.org/2000/svg">
<path d="M0.5 502C213 163 225.733 165.267 313.5 77.5C355 36 529 -63 479.5 59C430 181 236.062 160 339.5 367C450.871 589.874 11 310.5 293 302.5C575 294.5 598 654.5 709.5 416.5C821 178.5 460.119 67.748 642.5 279C772 429 888.5 106 1056.5 106C1202.55 106 1559 233.256 1481 395.5C1404.82 553.964 1283.15 298.035 1517.5 238C1740 181 1983 812.5 1918.5 367C1875.05 66.8862 1442.5 161.349 1983.5 323C2104.61 359.187 2162 380 2286 437" stroke="#0E0E0E" stroke-width="35"/>
</svg>
