<svg width="51" height="86" viewBox="0 0 51 86" fill="none" xmlns="http://www.w3.org/2000/svg">
<path d="M3.75978 -11.9212C-2.82409 -13.9976 -9.84469 -10.3437 -11.9212 -3.75978C-13.9976 2.82409 -10.3437 9.84469 -3.75978 11.9212L3.75978 -11.9212ZM-3.75978 11.9212C9.19161 16.0059 11.3461 20.2233 11.9513 21.9297C13.091 25.1432 12.5284 29.2147 10.9473 38.4275C9.62921 46.1073 7.59441 57.7797 12.3646 69.3322C17.3969 81.5193 28.5626 90.7136 46.4849 97.656L55.5151 74.3439C40.9476 68.701 36.8715 63.1796 35.4722 59.7907C33.8108 55.7671 34.1545 51.0032 35.587 42.6563C36.7565 35.8424 39.3167 24.297 35.5133 13.5731C31.1755 1.34222 20.3211 -6.69794 3.75978 -11.9212L-3.75978 11.9212Z" fill="#E6F0F4"/>
</svg>
